<svg width="996" height="874" viewBox="0 0 996 874" fill="none" xmlns="http://www.w3.org/2000/svg">
<path fill-rule="evenodd" clip-rule="evenodd" d="M287.775 15.1309L756 0.866739L977.695 413.226L860.609 380.346L820.951 410.916L756.988 351.248L581.898 302.08L451.878 175.232L368.347 149.768L374.965 100.194L287.775 15.1309ZM568.515 210.787L610.784 252.025L667.781 268.031L624.815 227.949L568.515 210.787ZM830.613 313.757L707.567 84.8864L447.585 92.8065L421.226 67.0914L723.08 57.8956L865.977 323.687L830.613 313.757ZM773.376 873.398L995.136 460.771L877.874 493.748L838.25 463.228L774.429 522.839L599.569 572.015L469.446 699.061L385.786 724.622L392.432 774.253L305.415 859.212L773.376 873.398ZM465.1 781.569L438.817 807.23L740.448 816.374L883.411 550.363L847.96 560.333L724.829 789.442L465.1 781.569ZM685.319 606.072L628.475 622.058L586.117 663.414L642.309 646.246L685.319 606.072ZM671.064 696.015L752.187 620.244L691.9 732.418L564.553 728.558L671.064 696.015ZM653.539 178.161L547.357 145.793L674.647 141.915L734.977 254.131L653.539 178.161ZM247.285 835.06L0.819201 436.697L247.085 38.5238L277.153 156.361L323.458 175.421L303.764 260.653L348.728 436.867L303.885 612.889L323.599 697.963L277.357 717.019L247.285 835.06ZM276.359 494.101L290.937 436.878L276.3 379.516L263.072 436.765L276.359 494.101ZM234.483 215.635L225.402 180.044L66.6676 436.692L225.558 693.507L234.65 657.82L97.8002 436.631L234.483 215.635ZM205.592 436.783L230.652 544.923L163.649 436.626L230.665 328.27L205.592 436.783Z" fill="#151419"/>
</svg>
